<svg width="129" height="60" viewBox="0 0 129 60" fill="none" xmlns="http://www.w3.org/2000/svg">
<path d="M0.69 24.867H5.773V38H9.085V24.867H14.191V21.9H0.69V24.867ZM19.9746 38V31.491H22.7576L27.4496 38H31.2906L26.3226 31.123C28.4156 30.479 29.6576 28.8 29.6576 26.661C29.6576 25.258 29.1516 24.108 28.1626 23.234C27.1736 22.337 25.8166 21.9 24.1146 21.9H16.6626V38H19.9746ZM19.9746 24.798H23.9306C25.4256 24.798 26.3226 25.534 26.3226 26.753C26.3226 28.018 25.4256 28.708 23.9306 28.708H19.9746V24.798ZM36.8674 38V21.9H33.5784V38H36.8674ZM43.8281 38V31.629H47.5541C49.2791 31.629 50.6591 31.169 51.6481 30.272C52.6601 29.375 53.1661 28.202 53.1661 26.753C53.1661 25.304 52.6601 24.154 51.6481 23.257C50.6591 22.36 49.2791 21.9 47.5541 21.9H40.5161V38H43.8281ZM43.8281 24.798H47.3241C48.9111 24.798 49.8541 25.511 49.8541 26.799C49.8541 28.087 48.9111 28.8 47.3241 28.8H43.8281V24.798ZM63.8423 38.322C65.5903 38.322 67.1083 37.931 68.4193 37.149V33.814C67.2233 34.757 65.7513 35.217 64.0033 35.217C62.4163 35.217 61.1053 34.734 60.0703 33.745C59.0353 32.756 58.5063 31.491 58.5063 29.95C58.5063 28.409 59.0123 27.167 60.0243 26.178C61.0593 25.189 62.3243 24.683 63.8653 24.683C65.4523 24.683 66.8553 25.097 68.0973 25.925V22.59C66.8323 21.923 65.4293 21.578 63.8423 21.578C61.3353 21.578 59.2423 22.36 57.5863 23.924C55.9533 25.488 55.1253 27.489 55.1253 29.95C55.1253 32.388 55.9533 34.389 57.6093 35.976C59.2653 37.54 61.3353 38.322 63.8423 38.322Z" fill="white"/>
<path d="M119 46.755C119 47.4738 118.468 48.0899 117.759 48.2085C72.3607 55.7999 47.0954 55.7564 4.23047 48.2176C3.52518 48.0935 3 47.4783 3 46.7622C3 45.8432 3.84435 45.1498 4.74969 45.3079C48.1552 52.8886 73.3895 52.9172 117.257 45.3048C118.159 45.1482 119 45.8393 119 46.755Z" fill="white"/>
<path d="M3 14.1319C3 13.4131 3.53161 12.7969 4.24058 12.6784C49.6393 5.08695 74.9046 5.13052 117.77 12.6693C118.475 12.7933 119 13.4085 119 14.1247C119 15.0437 118.156 15.7371 117.25 15.579C73.8448 7.99824 48.6105 7.9697 4.7432 15.5821C3.84102 15.7387 3 15.0475 3 14.1319Z" fill="white"/>
<path d="M92.0704 22C87.6982 22 84.1409 25.589 84.1409 30C84.1409 32.8987 81.8035 35.2571 78.93 35.2571C76.0566 35.2571 73.7188 32.8987 73.7188 30C73.7188 27.1013 76.0561 24.7429 78.9296 24.7429C79.9668 24.7429 80.9683 25.0491 81.8257 25.6288C82.1123 25.8231 82.3801 26.0453 82.6208 26.2894C83.1336 26.8087 84.0292 26.8105 84.543 26.2935C85.0742 25.76 85.0761 24.8901 84.5473 24.3538C84.18 23.9822 83.7735 23.6443 83.3395 23.3509C82.0326 22.4672 80.5081 22.0005 78.9296 22.0005C74.5573 22 71 25.589 71 30C71 34.411 74.5573 38 78.9296 38C83.3018 38 86.8591 34.411 86.8591 30C86.8591 27.1013 89.1965 24.7429 92.0699 24.7429C94.9434 24.7429 97.2812 27.1013 97.2812 30C97.2812 32.8987 94.9438 35.2571 92.0704 35.2571C90.6789 35.2571 89.3705 34.7109 88.3865 33.7184C87.8732 33.2005 86.9775 33.2005 86.4638 33.7184C86.2071 33.9776 86.066 34.3218 86.066 34.688C86.066 35.0546 86.2076 35.3993 86.4642 35.6576C87.9616 37.1685 89.9529 38 92.0704 38C96.4427 38 100 34.411 100 30C100 25.589 96.4427 22 92.0704 22Z" fill="#FFC107"/>
<path d="M107.083 38V31.629H110.809C112.534 31.629 113.914 31.169 114.903 30.272C115.915 29.375 116.421 28.202 116.421 26.753C116.421 25.304 115.915 24.154 114.903 23.257C113.914 22.36 112.534 21.9 110.809 21.9H103.771V38H107.083ZM107.083 24.798H110.579C112.166 24.798 113.109 25.511 113.109 26.799C113.109 28.087 112.166 28.8 110.579 28.8H107.083V24.798Z" fill="white"/>
</svg>
